<svg width="493" height="493" viewBox="0 0 493 493" fill="none" xmlns="http://www.w3.org/2000/svg">
<path d="M493 265.111C493 390.971 382.638 493 246.5 493C110.362 493 0 390.971 0 265.111C0 139.251 119.274 76.5142 246.5 139.379C365.774 52.9365 493 139.251 493 265.111Z" fill="#72AC39"/>
<path d="M198.949 52.0931L254.474 118.574L340.535 0L294.49 137.392L387.062 123.505L294.49 162.951L256.46 204.754L198.949 162.951L98.127 134.172L200.936 138.272L198.949 52.0931Z" fill="#407010"/>
<path d="M130.491 166.189C155.039 183.315 100.418 209.204 78.2066 241.041C55.9953 272.878 81.6927 312.036 57.1449 294.911C32.597 277.785 33.2865 233.994 55.4978 202.157C77.7091 170.32 105.943 149.063 130.491 166.189Z" fill="#F5FFD7"/>
</svg>
